<svg  viewBox="0 0 16 16" fill="none" xmlns="http://www.w3.org/2000/svg">
<mask id="mask0_120_980" style="mask-type:luminance" maskUnits="userSpaceOnUse" x="0" y="0">
<path d="M8.17653 15.1136C12.246 15.1136 15.5449 11.8146 15.5449 7.74513C15.5449 3.67566 12.246 0.376709 8.17653 0.376709C4.10706 0.376709 0.808105 3.67566 0.808105 7.74513C0.808105 11.8146 4.10706 15.1136 8.17653 15.1136Z" fill="white"/>
</mask>
<g mask="url(#mask0_120_980)">
<path d="M8.17666 15.0856C4.14619 15.0856 0.849792 11.7892 0.849792 7.75869C0.849792 3.72822 4.14619 0.417969 8.17666 0.417969C12.2071 0.417969 15.5035 3.70052 15.5035 7.74484C15.5035 11.7892 12.221 15.0717 8.17666 15.0717V15.0856ZM8.17666 0.77808C4.3401 0.77808 1.2099 3.90827 1.2099 7.75869C1.2099 11.6091 4.3401 14.7393 8.19051 14.7393C12.0409 14.7393 15.1711 11.6091 15.1711 7.75869C15.1711 3.90827 12.0271 0.77808 8.17666 0.77808Z" fill="#004A3C"/>
<path d="M15.7676 1.58339L15.8663 1.47333L15.7577 1.37304L15.7438 1.36025L15.7007 1.32046H15.6421H15.3789H15.3206L15.2776 1.35985C13.5661 2.92749 10.9322 3.81413 8.17668 3.81413C5.22003 3.81413 2.65888 3.03891 1.07622 1.57765L1.03312 1.53786H0.974462H0.711304H0.390962L0.59609 1.78391C2.25798 3.77734 5.19326 4.61287 8.17668 4.61287C11.1717 4.61287 13.9317 3.63055 15.7676 1.58339Z" fill="#004A3C" stroke="#004A3C" stroke-width="0.3"/>
<path d="M15.7677 5.10088L15.992 4.85073H15.656H15.6422H15.379H15.3207L15.2777 4.89012C13.5662 6.45777 10.9323 7.3444 8.1768 7.3444C5.22015 7.3444 2.659 6.56919 1.07634 5.10792L1.03324 5.06813H0.974584H0.711426H0.389724L0.596525 5.31455C2.25839 7.29484 5.19341 8.13035 8.1768 8.13035C11.1718 8.13035 13.9318 7.14804 15.7677 5.10088Z" fill="#004A3C" stroke="#004A3C" stroke-width="0.3"/>
<path d="M15.7677 8.63027L15.8664 8.52021L15.7578 8.41991L15.7439 8.40713L15.7008 8.36733H15.6422H15.379H15.3207L15.2777 8.40672C13.5662 9.97437 10.9323 10.861 8.1768 10.861C5.22015 10.861 2.659 10.0858 1.07634 8.62452L1.03324 8.58473H0.974584H0.711426H0.389724L0.596525 8.83116C2.25815 10.8112 5.19282 11.6597 8.1768 11.6597C11.1718 11.6597 13.9318 10.6774 15.7677 8.63027Z" fill="#004A3C" stroke="#004A3C" stroke-width="0.3"/>
<path d="M0.433594 7.75863C0.433594 11.9405 3.77613 15.365 7.92667 15.4977V15.5156H8.17667C12.4425 15.5156 15.9197 12.0377 15.9197 7.75863C15.9197 3.47959 12.4425 0.00170898 8.17667 0.00170898C3.91057 0.00170898 0.433594 3.49374 0.433594 7.75863ZM1.62611 7.75863C1.62611 4.14258 4.56194 1.19423 8.17667 1.19423C11.7914 1.19423 14.7272 4.14258 14.7272 7.75863C14.7272 11.3747 11.7914 14.323 8.17667 14.323C4.56194 14.323 1.62611 11.3747 1.62611 7.75863Z" fill="#004A3C" stroke="#004A3C" stroke-width="0.5"/>
</g>
</svg>
