<svg xmlns="http://www.w3.org/2000/svg" width="153" height="28" fill="none" viewBox="0 0 153 28"><path fill="#004A3C" d="M15.057 27.448h-4.915L.654.434h4.801l7.43 22.306h2.44L22.716.434h1.868l-9.527 27.014ZM30.448 15.911c0 2.91 1.652 7.38 9.696 7.38s10.413-3.793 10.413-7.38H30.448Zm22.365-1.82c0 7.485-5.013 13.356-12.89 13.356-6.335 0-11.568-3.897-11.568-12.94v-2.495h22.31c0-4.157-2.919-7.223-10.742-7.43-5.729.103-9.254 1.455-9.254 4.573H28.52c0-4.47 4.573-8.73 11.403-8.73 8.925 0 12.89 6.13 12.89 13.667ZM68.053 12.177h7.811V5.142h-7.811c-6.365 0-8.917.347-8.917 3.358 0 3.01 2.63 3.677 8.917 3.677ZM57.688 8.383c0-7.487 3.776-8.23 10.097-7.95h9.64v27.015h-1.562V16.643h-8.078c-.725 0-1.448-.038-2.096-.115L60.584 27.45h-2.515l5.258-11.346c-4.038-1.197-5.64-4.092-5.64-7.72M92.34.434c6.441 0 10.746 2.948 10.746 8.133 0 9.814-18.633 6.344-18.633 11.68 0 1.529 1.448 2.76 7.506 2.76 5.448 0 8.612-1.083 8.612-3.06h1.41c0 4.776-4.572 7.5-9.907 7.5-5.03 0-9.145-2.5-9.183-7.015-.037-10.522 18.634-6.232 18.634-12.014 0-2.24-2.286-3.546-8.955-3.546-6.67 0-8.956 2.39-8.956 4.702h-1.447c0-4.888 3.582-9.142 10.174-9.142M107.259 18.07V.434h1.563v16.425c0 3.973 1.333 5.904 8.65 5.904 7.316 0 8.612-1.93 8.612-5.904V.434h1.563V18.07c0 5.753-2.781 9.385-10.174 9.385-7.392 0-10.212-3.632-10.212-9.385M142.536 27.449c-6.439 0-10.746-2.949-10.746-8.134 0-9.813 18.634-6.344 18.634-11.679 0-1.53-1.448-2.76-7.507-2.76-5.448 0-8.612 1.082-8.612 3.06h-1.41c0-4.776 4.573-7.5 9.907-7.5 5.031 0 9.145 2.5 9.184 7.014.038 10.523-18.633 6.232-18.633 12.015 0 2.239 2.286 3.545 8.955 3.545 6.67 0 8.956-2.389 8.956-4.702h1.448c0 4.888-3.581 9.142-10.173 9.142"/></svg>