<svg xmlns="http://www.w3.org/2000/svg" fill="none" viewBox="0 0 344 187"><g fill="#000" clip-path="url(#a)"><path d="M93.91 179.944H62.032L.5 6.98h31.141l48.183 142.817h15.8L143.563 6.98h12.111L93.909 179.944ZM237.043.277c44.996 0 75.085 20.343 75.085 56.112 0 67.703-130.202 43.771-130.202 80.578 0 10.553 10.121 19.045 52.45 19.045 38.076 0 60.178-7.468 60.178-21.107h9.846c0 32.944-31.948 51.744-69.231 51.744-35.149 0-63.897-17.243-64.171-48.399-.26-72.59 130.202-42.992 130.202-82.885 0-15.44-15.974-24.451-62.571-24.451-46.596 0-62.571 16.479-62.571 32.439h-10.12c0-33.722 25.028-63.076 71.091-63.076M339.78 180.261c-2.479 2.091-5.622 3.143-9.428 3.143-3.807 0-6.964-1.067-9.501-3.215-2.538-2.148-3.807-4.974-3.807-8.477s1.269-6.329 3.807-8.477c2.537-2.149 5.694-3.215 9.501-3.215 3.806 0 6.949 1.052 9.428 3.142 2.48 2.091 3.734 4.946 3.734 8.55 0 3.604-1.239 6.459-3.734 8.549Z"/></g><defs><clipPath id="a"><path fill="#fff" d="M.5.277h343v186.386H.5z"/></clipPath></defs></svg>