<svg width="32" height="16" viewBox="0 0 32 16" fill="none" xmlns="http://www.w3.org/2000/svg">
<path d="M7.85962 13.2628H7.89494L11.994 1.06934H15.2018V1.42876C13.5543 1.42876 13.4006 1.66976 13.4006 2.71479V13.1443C13.4006 14.1914 13.5543 14.4304 15.2018 14.4304V14.7898H10.5709V14.4304C12.1997 14.4304 12.3555 14.1894 12.3555 13.1443V2.06243H12.3036L7.87831 15.1326H7.38178L3.06037 2.23487H3.00843V13.1443C3.00843 14.1914 3.16217 14.4304 4.79309 14.4304V14.7898H0.625427V14.4304C2.25426 14.4304 2.41009 14.1894 2.41009 13.1443V2.71479C2.41009 1.66768 2.25634 1.42876 0.625427 1.42876V1.06934H3.83324L7.86378 13.2648L7.85962 13.2628Z" fill="#004A3C"/>
<path d="M16.2986 9.18019H19.7121C19.7121 7.61991 19.3008 6.05756 18.1519 6.05756C17.0029 6.05756 16.4545 7.49941 16.2986 9.18019ZM20.8278 11.1705C20.5536 13.8984 19.4379 15.0639 18.0667 15.0639C16.3007 15.0639 15.2702 13.1255 15.2702 10.4164C15.2702 7.70717 16.334 5.47583 18.1352 5.47583C19.7828 5.47583 20.726 7.20855 20.726 9.76399H16.2654V10.0902C16.2654 12.3381 17.0196 14.1893 18.3762 14.1893C19.1657 14.1893 20.0736 13.5203 20.4684 11.1705H20.8278Z" fill="#004A3C"/>
<path d="M26.4709 12.6976V9.28409C26.4709 7.43087 25.8705 6.14484 24.7382 6.14484C23.315 6.14484 22.7998 8.1518 22.7998 10.1588C22.7998 12.4566 23.3483 14.2059 24.5845 14.2059C25.5111 14.2059 26.0429 13.4684 26.4709 12.6955M28.5984 14.2392L26.7119 15.0619L26.4709 14.8562V13.485H26.4024C25.991 14.4282 25.2867 15.0619 24.2583 15.0619C22.6294 15.0619 21.7714 13.0715 21.7714 10.5161C21.7714 7.78822 22.7666 5.47377 24.6177 5.47377C25.4591 5.47377 26.0762 5.81658 26.4522 6.417H26.4688V2.6981C26.4688 1.63437 26.5021 1.44531 25.4737 1.90862L25.3199 1.58243L27.2583 0.707764L27.4308 0.896825V13.0923C27.4308 14.1727 27.4141 14.3617 28.4426 13.9151L28.5963 14.2412L28.5984 14.2392Z" fill="#004A3C"/>
<path d="M29.4187 14.2746C29.4187 13.8279 29.7781 13.4685 30.2082 13.4685C30.6383 13.4685 31.0143 13.8279 31.0143 14.2746C31.0143 14.7213 30.6549 15.0641 30.2082 15.0641C29.7615 15.0641 29.4187 14.7047 29.4187 14.2746Z" fill="#004A3C"/>
</svg>
