<svg width="25" height="16" viewBox="0 0 25 16" fill="none" xmlns="http://www.w3.org/2000/svg">
<path d="M8.27424 4.92776C8.27424 2.6985 6.79915 1.68463 4.94593 1.68463C4.46601 1.68463 4.1232 1.7532 3.7617 1.8737C3.5394 1.95888 3.43552 2.1147 3.43552 2.337V7.86133C3.95076 8.03377 4.46393 8.16882 5.15161 8.16882C7.15857 8.16882 8.27424 6.88278 8.27424 4.92776ZM0.60791 14.4639C2.23675 14.4639 2.39257 14.2229 2.39257 13.1779V2.74836C2.39257 1.70126 2.23882 1.46233 0.60791 1.46233V1.10083H4.96463C7.50346 1.10083 9.37329 2.30168 9.37329 4.89245C9.37329 7.32739 7.67589 8.76924 5.27419 8.76924C4.56989 8.76924 4.00478 8.64874 3.43967 8.45968V13.1758C3.43967 14.2229 3.59342 14.4619 5.25757 14.4619V14.8213H0.609987V14.4619L0.60791 14.4639Z" fill="#004A3C"/>
<path d="M14.6876 10.9984C14.6876 8.66527 13.8815 6.10982 12.2527 6.10982C10.8462 6.10982 10.2457 7.87578 10.2457 9.62719C10.2457 11.9603 11.0519 14.4992 12.6994 14.4992C14.0893 14.4992 14.6897 12.7332 14.6897 11.0005M9.25266 10.3481C9.25266 7.6888 10.4182 5.51147 12.4771 5.51147C14.3635 5.51147 15.6849 7.57037 15.6849 10.2629C15.6849 12.9555 14.5194 15.0996 12.4771 15.0996C10.574 15.0996 9.25266 13.0407 9.25266 10.3481Z" fill="#004A3C"/>
<path d="M17.9308 13.5205C18.205 13.9153 18.7888 14.4471 19.5596 14.4471C20.8976 14.4471 21.6684 12.7497 21.6684 10.1756C21.6684 7.60144 20.9308 6.36734 19.8152 6.36734C19.0776 6.36734 18.4252 6.95115 17.9287 7.73856V13.5184L17.9308 13.5205ZM16.9709 2.73155C16.9709 1.66782 16.9875 1.47876 16.0111 1.92544L15.8573 1.59926L17.7583 0.741211L17.9308 0.930272V7.03633H17.9993C18.5998 6.10972 19.3892 5.5093 20.2972 5.5093C21.7556 5.5093 22.6989 7.19007 22.6989 9.9699C22.6989 13.0572 21.5499 15.0808 19.5264 15.0808C18.6517 15.0808 17.6565 14.7027 16.9709 13.9651V2.73155Z" fill="#004A3C"/>
<path d="M23.1458 14.3081C23.1458 13.8614 23.5052 13.502 23.9353 13.502C24.3654 13.502 24.7414 13.8614 24.7414 14.3081C24.7414 14.7547 24.382 15.0975 23.9353 15.0975C23.4886 15.0975 23.1458 14.7381 23.1458 14.3081Z" fill="#004A3C"/>
</svg>
